<?xml version="1.0" encoding="UTF-8" standalone="no"?>
<!DOCTYPE svg PUBLIC "-//W3C//DTD SVG 1.1//EN"
 "http://www.w3.org/Graphics/SVG/1.1/DTD/svg11.dtd">
<!-- Generated by graphviz version 2.43.0 (0)
 -->
<!-- Title: G Pages: 1 -->
<svg width="1299pt" height="638pt"
 viewBox="0.00 0.00 1299.00 638.00" xmlns="http://www.w3.org/2000/svg" xmlns:xlink="http://www.w3.org/1999/xlink">
<g id="graph0" class="graph" transform="scale(1 1) rotate(0) translate(4 634)">
<title>G</title>
<polygon fill="white" stroke="transparent" points="-4,4 -4,-634 1295,-634 1295,4 -4,4"/>
<g id="clust1" class="cluster">
<title>cluster_root</title>
<g id="a_clust1"><a xlink:title="eventq_index=0&#10;full_system=false&#10;sim_quantum=0&#10;time_sync_enable=false&#10;time_sync_period=100000000000&#10;time_sync_spin_threshold=100000000">
<path fill="#bab6ae" stroke="#000000" d="M20,-8C20,-8 1271,-8 1271,-8 1277,-8 1283,-14 1283,-20 1283,-20 1283,-610 1283,-610 1283,-616 1277,-622 1271,-622 1271,-622 20,-622 20,-622 14,-622 8,-616 8,-610 8,-610 8,-20 8,-20 8,-14 14,-8 20,-8"/>
<text text-anchor="middle" x="645.5" y="-606.8" font-family="Arial" font-size="14.00" fill="#000000">root </text>
<text text-anchor="middle" x="645.5" y="-591.8" font-family="Arial" font-size="14.00" fill="#000000">: Root</text>
</a>
</g>
</g>
<g id="clust2" class="cluster">
<title>cluster_system</title>
<g id="a_clust2"><a xlink:title="byte_order=little&#10;cache_line_size=32&#10;eventq_index=0&#10;exit_on_work_items=false&#10;init_param=0&#10;kvm_vm=Null&#10;m5ops_base=4294901760&#10;mem_mode=timing&#10;mem_ranges=0:536870912&#10;memories=system.mem_ctrls.dram&#10;mmap_using_noreserve=false&#10;multi_thread=false&#10;&#10;um_work_ids=16&#10;&#13;eadfile=&#10;&#13;edirect_paths=system.redirect_paths0 system.redirect_paths1 system.redirect_paths2&#10;shared_backstore=&#10;symbolfile=&#10;thermal_components=&#10;thermal_model=Null&#10;work_begin_ckpt_count=0&#10;work_begin_cpu_id_exit=&#45;1&#10;work_begin_exit_count=0&#10;work_cpus_ckpt_count=0&#10;work_end_ckpt_count=0&#10;work_end_exit_count=0&#10;work_item_id=&#45;1&#10;workload=Null">
<path fill="#e4e7eb" stroke="#000000" d="M28,-16C28,-16 1263,-16 1263,-16 1269,-16 1275,-22 1275,-28 1275,-28 1275,-564 1275,-564 1275,-570 1269,-576 1263,-576 1263,-576 28,-576 28,-576 22,-576 16,-570 16,-564 16,-564 16,-28 16,-28 16,-22 22,-16 28,-16"/>
<text text-anchor="middle" x="645.5" y="-560.8" font-family="Arial" font-size="14.00" fill="#000000">system </text>
<text text-anchor="middle" x="645.5" y="-545.8" font-family="Arial" font-size="14.00" fill="#000000">: System</text>
</a>
</g>
</g>
<g id="clust4" class="cluster">
<title>cluster_system_cpu</title>
<g id="a_clust4"><a xlink:title="branchPred=system.cpu.branchPred&#10;checker=Null&#10;clk_domain=system.cpu_clk_domain&#10;cpu_id=0&#10;do_checkpoint_insts=true&#10;do_statistics_insts=true&#10;dtb=system.cpu.dtb&#10;eventq_index=0&#10;function_trace=false&#10;function_trace_start=0&#10;interrupts=system.cpu.interrupts&#10;isa=system.cpu.isa&#10;itb=system.cpu.itb&#10;max_insts_all_threads=0&#10;max_insts_any_thread=100000000&#10;&#10;umThreads=1&#10;power_gating_on_idle=false&#10;power_model=&#10;power_state=system.cpu.power_state&#10;progress_interval=0&#10;pwr_gating_latency=300&#10;simpoint_start_insts=&#10;socket_id=0&#10;switched_out=false&#10;syscallRetryLatency=10000&#10;system=system&#10;tracer=system.cpu.tracer&#10;wait_for_remote_gdb=false&#10;workload=system.cpu.workload">
<path fill="#bbc6d9" stroke="#000000" d="M406,-24C406,-24 1255,-24 1255,-24 1261,-24 1267,-30 1267,-36 1267,-36 1267,-334 1267,-334 1267,-340 1261,-346 1255,-346 1255,-346 406,-346 406,-346 400,-346 394,-340 394,-334 394,-334 394,-36 394,-36 394,-30 400,-24 406,-24"/>
<text text-anchor="middle" x="830.5" y="-330.8" font-family="Arial" font-size="14.00" fill="#000000">cpu </text>
<text text-anchor="middle" x="830.5" y="-315.8" font-family="Arial" font-size="14.00" fill="#000000">: TimingSimpleCPU</text>
</a>
</g>
</g>
<g id="clust5" class="cluster">
<title>cluster_system_cpu_dtb</title>
<g id="a_clust5"><a xlink:title="eventq_index=0&#10;size=64&#10;system=system&#10;walker=system.cpu.dtb.walker">
<path fill="#bab6ae" stroke="#000000" d="M1104,-155C1104,-155 1247,-155 1247,-155 1253,-155 1259,-161 1259,-167 1259,-167 1259,-288 1259,-288 1259,-294 1253,-300 1247,-300 1247,-300 1104,-300 1104,-300 1098,-300 1092,-294 1092,-288 1092,-288 1092,-167 1092,-167 1092,-161 1098,-155 1104,-155"/>
<text text-anchor="middle" x="1175.5" y="-284.8" font-family="Arial" font-size="14.00" fill="#000000">dtb </text>
<text text-anchor="middle" x="1175.5" y="-269.8" font-family="Arial" font-size="14.00" fill="#000000">: X86TLB</text>
</a>
</g>
</g>
<g id="clust6" class="cluster">
<title>cluster_system_cpu_dtb_walker</title>
<g id="a_clust6"><a xlink:title="clk_domain=system.cpu_clk_domain&#10;eventq_index=0&#10;&#10;um_squash_per_cycle=4&#10;power_model=&#10;power_state=system.cpu.dtb.walker.power_state&#10;system=system">
<path fill="#9f9c95" stroke="#000000" d="M1112,-163C1112,-163 1239,-163 1239,-163 1245,-163 1251,-169 1251,-175 1251,-175 1251,-242 1251,-242 1251,-248 1245,-254 1239,-254 1239,-254 1112,-254 1112,-254 1106,-254 1100,-248 1100,-242 1100,-242 1100,-175 1100,-175 1100,-169 1106,-163 1112,-163"/>
<text text-anchor="middle" x="1175.5" y="-238.8" font-family="Arial" font-size="14.00" fill="#000000">walker </text>
<text text-anchor="middle" x="1175.5" y="-223.8" font-family="Arial" font-size="14.00" fill="#000000">: X86PagetableWalker</text>
</a>
</g>
</g>
<g id="clust8" class="cluster">
<title>cluster_system_cpu_itb</title>
<g id="a_clust8"><a xlink:title="eventq_index=0&#10;size=64&#10;system=system&#10;walker=system.cpu.itb.walker">
<path fill="#bab6ae" stroke="#000000" d="M929,-155C929,-155 1072,-155 1072,-155 1078,-155 1084,-161 1084,-167 1084,-167 1084,-288 1084,-288 1084,-294 1078,-300 1072,-300 1072,-300 929,-300 929,-300 923,-300 917,-294 917,-288 917,-288 917,-167 917,-167 917,-161 923,-155 929,-155"/>
<text text-anchor="middle" x="1000.5" y="-284.8" font-family="Arial" font-size="14.00" fill="#000000">itb </text>
<text text-anchor="middle" x="1000.5" y="-269.8" font-family="Arial" font-size="14.00" fill="#000000">: X86TLB</text>
</a>
</g>
</g>
<g id="clust9" class="cluster">
<title>cluster_system_cpu_itb_walker</title>
<g id="a_clust9"><a xlink:title="clk_domain=system.cpu_clk_domain&#10;eventq_index=0&#10;&#10;um_squash_per_cycle=4&#10;power_model=&#10;power_state=system.cpu.itb.walker.power_state&#10;system=system">
<path fill="#9f9c95" stroke="#000000" d="M937,-163C937,-163 1064,-163 1064,-163 1070,-163 1076,-169 1076,-175 1076,-175 1076,-242 1076,-242 1076,-248 1070,-254 1064,-254 1064,-254 937,-254 937,-254 931,-254 925,-248 925,-242 925,-242 925,-175 925,-175 925,-169 931,-163 937,-163"/>
<text text-anchor="middle" x="1000.5" y="-238.8" font-family="Arial" font-size="14.00" fill="#000000">walker </text>
<text text-anchor="middle" x="1000.5" y="-223.8" font-family="Arial" font-size="14.00" fill="#000000">: X86PagetableWalker</text>
</a>
</g>
</g>
<g id="clust17" class="cluster">
<title>cluster_system_cpu_icache</title>
<g id="a_clust17"><a xlink:title="addr_ranges=0:18446744073709551615&#10;assoc=2&#10;clk_domain=system.cpu_clk_domain&#10;clusivity=mostly_incl&#10;compressor=Null&#10;data_latency=2&#10;demand_mshr_reserve=1&#10;eventq_index=0&#10;is_read_only=true&#10;max_miss_count=0&#10;mshrs=4&#10;power_model=&#10;power_state=system.cpu.icache.power_state&#10;prefetch_on_access=false&#10;prefetcher=Null&#10;&#13;eplacement_policy=system.cpu.icache.replacement_policy&#10;&#13;esponse_latency=2&#10;sequential_access=false&#10;size=131072&#10;system=system&#10;tag_latency=2&#10;tags=system.cpu.icache.tags&#10;tgts_per_mshr=20&#10;warmup_percentage=0&#10;write_allocator=Null&#10;write_buffers=8&#10;writeback_clean=true">
<path fill="#bab6ae" stroke="#000000" d="M608,-32C608,-32 770,-32 770,-32 776,-32 782,-38 782,-44 782,-44 782,-111 782,-111 782,-117 776,-123 770,-123 770,-123 608,-123 608,-123 602,-123 596,-117 596,-111 596,-111 596,-44 596,-44 596,-38 602,-32 608,-32"/>
<text text-anchor="middle" x="689" y="-107.8" font-family="Arial" font-size="14.00" fill="#000000">icache </text>
<text text-anchor="middle" x="689" y="-92.8" font-family="Arial" font-size="14.00" fill="#000000">: L1_ICache</text>
</a>
</g>
</g>
<g id="clust23" class="cluster">
<title>cluster_system_cpu_dcache</title>
<g id="a_clust23"><a xlink:title="addr_ranges=0:18446744073709551615&#10;assoc=2&#10;clk_domain=system.cpu_clk_domain&#10;clusivity=mostly_incl&#10;compressor=Null&#10;data_latency=2&#10;demand_mshr_reserve=1&#10;eventq_index=0&#10;is_read_only=false&#10;max_miss_count=0&#10;mshrs=4&#10;power_model=&#10;power_state=system.cpu.dcache.power_state&#10;prefetch_on_access=false&#10;prefetcher=Null&#10;&#13;eplacement_policy=system.cpu.dcache.replacement_policy&#10;&#13;esponse_latency=2&#10;sequential_access=false&#10;size=131072&#10;system=system&#10;tag_latency=2&#10;tags=system.cpu.dcache.tags&#10;tgts_per_mshr=20&#10;warmup_percentage=0&#10;write_allocator=Null&#10;write_buffers=8&#10;writeback_clean=false">
<path fill="#bab6ae" stroke="#000000" d="M414,-32C414,-32 576,-32 576,-32 582,-32 588,-38 588,-44 588,-44 588,-111 588,-111 588,-117 582,-123 576,-123 576,-123 414,-123 414,-123 408,-123 402,-117 402,-111 402,-111 402,-44 402,-44 402,-38 408,-32 414,-32"/>
<text text-anchor="middle" x="495" y="-107.8" font-family="Arial" font-size="14.00" fill="#000000">dcache </text>
<text text-anchor="middle" x="495" y="-92.8" font-family="Arial" font-size="14.00" fill="#000000">: L1_DCache</text>
</a>
</g>
</g>
<g id="clust29" class="cluster">
<title>cluster_system_cpu_itb_walker_cache</title>
<g id="a_clust29"><a xlink:title="addr_ranges=0:18446744073709551615&#10;assoc=2&#10;clk_domain=system.cpu_clk_domain&#10;clusivity=mostly_incl&#10;compressor=Null&#10;data_latency=2&#10;demand_mshr_reserve=1&#10;eventq_index=0&#10;is_read_only=false&#10;max_miss_count=0&#10;mshrs=10&#10;power_model=&#10;power_state=system.cpu.itb_walker_cache.power_state&#10;prefetch_on_access=false&#10;prefetcher=Null&#10;&#13;eplacement_policy=system.cpu.itb_walker_cache.replacement_policy&#10;&#13;esponse_latency=2&#10;sequential_access=false&#10;size=1024&#10;system=system&#10;tag_latency=2&#10;tags=system.cpu.itb_walker_cache.tags&#10;tgts_per_mshr=12&#10;warmup_percentage=0&#10;write_allocator=Null&#10;write_buffers=8&#10;writeback_clean=false">
<path fill="#bab6ae" stroke="#000000" d="M806,-32C806,-32 968,-32 968,-32 974,-32 980,-38 980,-44 980,-44 980,-111 980,-111 980,-117 974,-123 968,-123 968,-123 806,-123 806,-123 800,-123 794,-117 794,-111 794,-111 794,-44 794,-44 794,-38 800,-32 806,-32"/>
<text text-anchor="middle" x="887" y="-107.8" font-family="Arial" font-size="14.00" fill="#000000">itb_walker_cache </text>
<text text-anchor="middle" x="887" y="-92.8" font-family="Arial" font-size="14.00" fill="#000000">: PageTableWalkerCache</text>
</a>
</g>
</g>
<g id="clust35" class="cluster">
<title>cluster_system_cpu_dtb_walker_cache</title>
<g id="a_clust35"><a xlink:title="addr_ranges=0:18446744073709551615&#10;assoc=2&#10;clk_domain=system.cpu_clk_domain&#10;clusivity=mostly_incl&#10;compressor=Null&#10;data_latency=2&#10;demand_mshr_reserve=1&#10;eventq_index=0&#10;is_read_only=false&#10;max_miss_count=0&#10;mshrs=10&#10;power_model=&#10;power_state=system.cpu.dtb_walker_cache.power_state&#10;prefetch_on_access=false&#10;prefetcher=Null&#10;&#13;eplacement_policy=system.cpu.dtb_walker_cache.replacement_policy&#10;&#13;esponse_latency=2&#10;sequential_access=false&#10;size=1024&#10;system=system&#10;tag_latency=2&#10;tags=system.cpu.dtb_walker_cache.tags&#10;tgts_per_mshr=12&#10;warmup_percentage=0&#10;write_allocator=Null&#10;write_buffers=8&#10;writeback_clean=false">
<path fill="#bab6ae" stroke="#000000" d="M1002,-32C1002,-32 1164,-32 1164,-32 1170,-32 1176,-38 1176,-44 1176,-44 1176,-111 1176,-111 1176,-117 1170,-123 1164,-123 1164,-123 1002,-123 1002,-123 996,-123 990,-117 990,-111 990,-111 990,-44 990,-44 990,-38 996,-32 1002,-32"/>
<text text-anchor="middle" x="1083" y="-107.8" font-family="Arial" font-size="14.00" fill="#000000">dtb_walker_cache </text>
<text text-anchor="middle" x="1083" y="-92.8" font-family="Arial" font-size="14.00" fill="#000000">: PageTableWalkerCache</text>
</a>
</g>
</g>
<g id="clust41" class="cluster">
<title>cluster_system_cpu_interrupts</title>
<g id="a_clust41"><a xlink:title="clk_domain=system.cpu.interrupts.clk_domain&#10;eventq_index=0&#10;int_latency=1000&#10;pio_latency=100000&#10;system=system">
<path fill="#bab6ae" stroke="#000000" d="M620,-163C620,-163 897,-163 897,-163 903,-163 909,-169 909,-175 909,-175 909,-242 909,-242 909,-248 903,-254 897,-254 897,-254 620,-254 620,-254 614,-254 608,-248 608,-242 608,-242 608,-175 608,-175 608,-169 614,-163 620,-163"/>
<text text-anchor="middle" x="758.5" y="-238.8" font-family="Arial" font-size="14.00" fill="#000000">interrupts </text>
<text text-anchor="middle" x="758.5" y="-223.8" font-family="Arial" font-size="14.00" fill="#000000">: X86LocalApic</text>
</a>
</g>
</g>
<g id="clust47" class="cluster">
<title>cluster_system_membus</title>
<g id="a_clust47"><a xlink:title="clk_domain=system.clk_domain&#10;eventq_index=0&#10;forward_latency=4&#10;frontend_latency=3&#10;header_latency=1&#10;max_outstanding_snoops=512&#10;max_routing_table_size=512&#10;point_of_coherency=true&#10;point_of_unification=true&#10;power_model=&#10;power_state=system.membus.power_state&#10;&#13;esponse_latency=2&#10;snoop_filter=system.membus.snoop_filter&#10;snoop_response_latency=4&#10;system=system&#10;use_default_range=false&#10;width=16">
<path fill="#6f798c" stroke="#000000" d="M598,-354C598,-354 834,-354 834,-354 840,-354 846,-360 846,-366 846,-366 846,-433 846,-433 846,-439 840,-445 834,-445 834,-445 598,-445 598,-445 592,-445 586,-439 586,-433 586,-433 586,-366 586,-366 586,-360 592,-354 598,-354"/>
<text text-anchor="middle" x="716" y="-429.8" font-family="Arial" font-size="14.00" fill="#000000">membus </text>
<text text-anchor="middle" x="716" y="-414.8" font-family="Arial" font-size="14.00" fill="#000000">: SystemXBar</text>
</a>
</g>
</g>
<g id="clust50" class="cluster">
<title>cluster_system_l2</title>
<g id="a_clust50"><a xlink:title="addr_ranges=0:18446744073709551615&#10;assoc=2&#10;clk_domain=system.cpu_clk_domain&#10;clusivity=mostly_incl&#10;compressor=Null&#10;data_latency=20&#10;demand_mshr_reserve=1&#10;eventq_index=0&#10;is_read_only=false&#10;max_miss_count=0&#10;mshrs=20&#10;power_model=&#10;power_state=system.l2.power_state&#10;prefetch_on_access=false&#10;prefetcher=Null&#10;&#13;eplacement_policy=system.l2.replacement_policy&#10;&#13;esponse_latency=20&#10;sequential_access=false&#10;size=131072&#10;system=system&#10;tag_latency=20&#10;tags=system.l2.tags&#10;tgts_per_mshr=12&#10;warmup_percentage=0&#10;write_allocator=Null&#10;write_buffers=8&#10;writeback_clean=false">
<path fill="#bab6ae" stroke="#000000" d="M49,-32C49,-32 211,-32 211,-32 217,-32 223,-38 223,-44 223,-44 223,-111 223,-111 223,-117 217,-123 211,-123 211,-123 49,-123 49,-123 43,-123 37,-117 37,-111 37,-111 37,-44 37,-44 37,-38 43,-32 49,-32"/>
<text text-anchor="middle" x="130" y="-107.8" font-family="Arial" font-size="14.00" fill="#000000">l2 </text>
<text text-anchor="middle" x="130" y="-92.8" font-family="Arial" font-size="14.00" fill="#000000">: L2Cache</text>
</a>
</g>
</g>
<g id="clust56" class="cluster">
<title>cluster_system_tol2bus</title>
<g id="a_clust56"><a xlink:title="clk_domain=system.cpu_clk_domain&#10;eventq_index=0&#10;forward_latency=0&#10;frontend_latency=1&#10;header_latency=1&#10;max_outstanding_snoops=512&#10;max_routing_table_size=512&#10;point_of_coherency=false&#10;point_of_unification=true&#10;power_model=&#10;power_state=system.tol2bus.power_state&#10;&#13;esponse_latency=1&#10;snoop_filter=system.tol2bus.snoop_filter&#10;snoop_response_latency=1&#10;system=system&#10;use_default_range=false&#10;width=32">
<path fill="#6f798c" stroke="#000000" d="M138,-163C138,-163 374,-163 374,-163 380,-163 386,-169 386,-175 386,-175 386,-242 386,-242 386,-248 380,-254 374,-254 374,-254 138,-254 138,-254 132,-254 126,-248 126,-242 126,-242 126,-175 126,-175 126,-169 132,-163 138,-163"/>
<text text-anchor="middle" x="256" y="-238.8" font-family="Arial" font-size="14.00" fill="#000000">tol2bus </text>
<text text-anchor="middle" x="256" y="-223.8" font-family="Arial" font-size="14.00" fill="#000000">: L2XBar</text>
</a>
</g>
</g>
<g id="clust59" class="cluster">
<title>cluster_system_mem_ctrls</title>
<g id="a_clust59"><a xlink:title="clk_domain=system.clk_domain&#10;command_window=10000&#10;dram=system.mem_ctrls.dram&#10;eventq_index=0&#10;mem_sched_policy=frfcfs&#10;min_writes_per_switch=16&#10;&#10;vm=Null&#10;power_model=&#10;power_state=system.mem_ctrls.power_state&#10;qos_policy=Null&#10;qos_priorities=1&#10;qos_priority_escalation=false&#10;qos_q_policy=fifo&#10;qos_requestors= &#160;&#160;&#160;&#160;&#160;&#160;&#160;&#160;&#160;&#160;&#160;&#160;&#160;&#160;&#10;qos_syncro_scheduler=false&#10;qos_turnaround_policy=Null&#10;static_backend_latency=10000&#10;static_frontend_latency=10000&#10;system=system&#10;write_high_thresh_perc=85&#10;write_low_thresh_perc=50">
<path fill="#bab6ae" stroke="#000000" d="M46,-163C46,-163 106,-163 106,-163 112,-163 118,-169 118,-175 118,-175 118,-242 118,-242 118,-248 112,-254 106,-254 106,-254 46,-254 46,-254 40,-254 34,-248 34,-242 34,-242 34,-175 34,-175 34,-169 40,-163 46,-163"/>
<text text-anchor="middle" x="76" y="-238.8" font-family="Arial" font-size="14.00" fill="#000000">mem_ctrls </text>
<text text-anchor="middle" x="76" y="-223.8" font-family="Arial" font-size="14.00" fill="#000000">: MemCtrl</text>
</a>
</g>
</g>
<!-- system_system_port -->
<g id="node1" class="node">
<title>system_system_port</title>
<path fill="#b6b8bc" stroke="#000000" d="M614.5,-493.5C614.5,-493.5 681.5,-493.5 681.5,-493.5 687.5,-493.5 693.5,-499.5 693.5,-505.5 693.5,-505.5 693.5,-517.5 693.5,-517.5 693.5,-523.5 687.5,-529.5 681.5,-529.5 681.5,-529.5 614.5,-529.5 614.5,-529.5 608.5,-529.5 602.5,-523.5 602.5,-517.5 602.5,-517.5 602.5,-505.5 602.5,-505.5 602.5,-499.5 608.5,-493.5 614.5,-493.5"/>
<text text-anchor="middle" x="648" y="-507.8" font-family="Arial" font-size="14.00" fill="#000000">system_port</text>
</g>
<!-- system_membus_cpu_side_ports -->
<g id="node17" class="node">
<title>system_membus_cpu_side_ports</title>
<path fill="#586070" stroke="#000000" d="M606,-362.5C606,-362.5 690,-362.5 690,-362.5 696,-362.5 702,-368.5 702,-374.5 702,-374.5 702,-386.5 702,-386.5 702,-392.5 696,-398.5 690,-398.5 690,-398.5 606,-398.5 606,-398.5 600,-398.5 594,-392.5 594,-386.5 594,-386.5 594,-374.5 594,-374.5 594,-368.5 600,-362.5 606,-362.5"/>
<text text-anchor="middle" x="648" y="-376.8" font-family="Arial" font-size="14.00" fill="#000000">cpu_side_ports</text>
</g>
<!-- system_system_port&#45;&gt;system_membus_cpu_side_ports -->
<g id="edge1" class="edge">
<title>system_system_port&#45;&gt;system_membus_cpu_side_ports</title>
<path fill="none" stroke="black" d="M648,-493.37C648,-471.78 648,-434.41 648,-408.85"/>
<polygon fill="black" stroke="black" points="651.5,-408.7 648,-398.7 644.5,-408.7 651.5,-408.7"/>
</g>
<!-- system_cpu_icache_port -->
<g id="node2" class="node">
<title>system_cpu_icache_port</title>
<path fill="#959ead" stroke="#000000" d="M524,-171.5C524,-171.5 586,-171.5 586,-171.5 592,-171.5 598,-177.5 598,-183.5 598,-183.5 598,-195.5 598,-195.5 598,-201.5 592,-207.5 586,-207.5 586,-207.5 524,-207.5 524,-207.5 518,-207.5 512,-201.5 512,-195.5 512,-195.5 512,-183.5 512,-183.5 512,-177.5 518,-171.5 524,-171.5"/>
<text text-anchor="middle" x="555" y="-185.8" font-family="Arial" font-size="14.00" fill="#000000">icache_port</text>
</g>
<!-- system_cpu_icache_cpu_side -->
<g id="node6" class="node">
<title>system_cpu_icache_cpu_side</title>
<path fill="#94918b" stroke="#000000" d="M714.5,-40.5C714.5,-40.5 761.5,-40.5 761.5,-40.5 767.5,-40.5 773.5,-46.5 773.5,-52.5 773.5,-52.5 773.5,-64.5 773.5,-64.5 773.5,-70.5 767.5,-76.5 761.5,-76.5 761.5,-76.5 714.5,-76.5 714.5,-76.5 708.5,-76.5 702.5,-70.5 702.5,-64.5 702.5,-64.5 702.5,-52.5 702.5,-52.5 702.5,-46.5 708.5,-40.5 714.5,-40.5"/>
<text text-anchor="middle" x="738" y="-54.8" font-family="Arial" font-size="14.00" fill="#000000">cpu_side</text>
</g>
<!-- system_cpu_icache_port&#45;&gt;system_cpu_icache_cpu_side -->
<g id="edge2" class="edge">
<title>system_cpu_icache_port&#45;&gt;system_cpu_icache_cpu_side</title>
<path fill="none" stroke="black" d="M577.68,-171.22C585.72,-165.58 595.01,-159.6 604,-155 641.43,-135.87 659.53,-148.43 693,-123 706.07,-113.07 716.87,-98.26 724.61,-85.44"/>
<polygon fill="black" stroke="black" points="727.77,-86.97 729.7,-76.56 721.69,-83.5 727.77,-86.97"/>
</g>
<!-- system_cpu_dcache_port -->
<g id="node3" class="node">
<title>system_cpu_dcache_port</title>
<path fill="#959ead" stroke="#000000" d="M414.5,-171.5C414.5,-171.5 481.5,-171.5 481.5,-171.5 487.5,-171.5 493.5,-177.5 493.5,-183.5 493.5,-183.5 493.5,-195.5 493.5,-195.5 493.5,-201.5 487.5,-207.5 481.5,-207.5 481.5,-207.5 414.5,-207.5 414.5,-207.5 408.5,-207.5 402.5,-201.5 402.5,-195.5 402.5,-195.5 402.5,-183.5 402.5,-183.5 402.5,-177.5 408.5,-171.5 414.5,-171.5"/>
<text text-anchor="middle" x="448" y="-185.8" font-family="Arial" font-size="14.00" fill="#000000">dcache_port</text>
</g>
<!-- system_cpu_dcache_cpu_side -->
<g id="node8" class="node">
<title>system_cpu_dcache_cpu_side</title>
<path fill="#94918b" stroke="#000000" d="M520.5,-40.5C520.5,-40.5 567.5,-40.5 567.5,-40.5 573.5,-40.5 579.5,-46.5 579.5,-52.5 579.5,-52.5 579.5,-64.5 579.5,-64.5 579.5,-70.5 573.5,-76.5 567.5,-76.5 567.5,-76.5 520.5,-76.5 520.5,-76.5 514.5,-76.5 508.5,-70.5 508.5,-64.5 508.5,-64.5 508.5,-52.5 508.5,-52.5 508.5,-46.5 514.5,-40.5 520.5,-40.5"/>
<text text-anchor="middle" x="544" y="-54.8" font-family="Arial" font-size="14.00" fill="#000000">cpu_side</text>
</g>
<!-- system_cpu_dcache_port&#45;&gt;system_cpu_dcache_cpu_side -->
<g id="edge3" class="edge">
<title>system_cpu_dcache_port&#45;&gt;system_cpu_dcache_cpu_side</title>
<path fill="none" stroke="black" d="M461.64,-171.42C472.03,-158.3 486.62,-139.66 499,-123 508.18,-110.64 518.11,-96.7 526.29,-85.04"/>
<polygon fill="black" stroke="black" points="529.31,-86.83 532.17,-76.63 523.58,-82.82 529.31,-86.83"/>
</g>
<!-- system_cpu_dtb_walker_port -->
<g id="node4" class="node">
<title>system_cpu_dtb_walker_port</title>
<path fill="#7f7c77" stroke="#000000" d="M1120,-171.5C1120,-171.5 1150,-171.5 1150,-171.5 1156,-171.5 1162,-177.5 1162,-183.5 1162,-183.5 1162,-195.5 1162,-195.5 1162,-201.5 1156,-207.5 1150,-207.5 1150,-207.5 1120,-207.5 1120,-207.5 1114,-207.5 1108,-201.5 1108,-195.5 1108,-195.5 1108,-183.5 1108,-183.5 1108,-177.5 1114,-171.5 1120,-171.5"/>
<text text-anchor="middle" x="1135" y="-185.8" font-family="Arial" font-size="14.00" fill="#000000">port</text>
</g>
<!-- system_cpu_dtb_walker_cache_cpu_side -->
<g id="node12" class="node">
<title>system_cpu_dtb_walker_cache_cpu_side</title>
<path fill="#94918b" stroke="#000000" d="M1108.5,-40.5C1108.5,-40.5 1155.5,-40.5 1155.5,-40.5 1161.5,-40.5 1167.5,-46.5 1167.5,-52.5 1167.5,-52.5 1167.5,-64.5 1167.5,-64.5 1167.5,-70.5 1161.5,-76.5 1155.5,-76.5 1155.5,-76.5 1108.5,-76.5 1108.5,-76.5 1102.5,-76.5 1096.5,-70.5 1096.5,-64.5 1096.5,-64.5 1096.5,-52.5 1096.5,-52.5 1096.5,-46.5 1102.5,-40.5 1108.5,-40.5"/>
<text text-anchor="middle" x="1132" y="-54.8" font-family="Arial" font-size="14.00" fill="#000000">cpu_side</text>
</g>
<!-- system_cpu_dtb_walker_port&#45;&gt;system_cpu_dtb_walker_cache_cpu_side -->
<g id="edge4" class="edge">
<title>system_cpu_dtb_walker_port&#45;&gt;system_cpu_dtb_walker_cache_cpu_side</title>
<path fill="none" stroke="black" d="M1134.6,-171.37C1134.1,-149.78 1133.23,-112.41 1132.64,-86.85"/>
<polygon fill="black" stroke="black" points="1136.13,-86.62 1132.4,-76.7 1129.13,-86.78 1136.13,-86.62"/>
</g>
<!-- system_cpu_itb_walker_port -->
<g id="node5" class="node">
<title>system_cpu_itb_walker_port</title>
<path fill="#7f7c77" stroke="#000000" d="M945,-171.5C945,-171.5 975,-171.5 975,-171.5 981,-171.5 987,-177.5 987,-183.5 987,-183.5 987,-195.5 987,-195.5 987,-201.5 981,-207.5 975,-207.5 975,-207.5 945,-207.5 945,-207.5 939,-207.5 933,-201.5 933,-195.5 933,-195.5 933,-183.5 933,-183.5 933,-177.5 939,-171.5 945,-171.5"/>
<text text-anchor="middle" x="960" y="-185.8" font-family="Arial" font-size="14.00" fill="#000000">port</text>
</g>
<!-- system_cpu_itb_walker_cache_cpu_side -->
<g id="node10" class="node">
<title>system_cpu_itb_walker_cache_cpu_side</title>
<path fill="#94918b" stroke="#000000" d="M912.5,-40.5C912.5,-40.5 959.5,-40.5 959.5,-40.5 965.5,-40.5 971.5,-46.5 971.5,-52.5 971.5,-52.5 971.5,-64.5 971.5,-64.5 971.5,-70.5 965.5,-76.5 959.5,-76.5 959.5,-76.5 912.5,-76.5 912.5,-76.5 906.5,-76.5 900.5,-70.5 900.5,-64.5 900.5,-64.5 900.5,-52.5 900.5,-52.5 900.5,-46.5 906.5,-40.5 912.5,-40.5"/>
<text text-anchor="middle" x="936" y="-54.8" font-family="Arial" font-size="14.00" fill="#000000">cpu_side</text>
</g>
<!-- system_cpu_itb_walker_port&#45;&gt;system_cpu_itb_walker_cache_cpu_side -->
<g id="edge5" class="edge">
<title>system_cpu_itb_walker_port&#45;&gt;system_cpu_itb_walker_cache_cpu_side</title>
<path fill="none" stroke="black" d="M956.81,-171.37C952.8,-149.78 945.84,-112.41 941.09,-86.85"/>
<polygon fill="black" stroke="black" points="944.47,-85.89 939.2,-76.7 937.59,-87.17 944.47,-85.89"/>
</g>
<!-- system_cpu_icache_mem_side -->
<g id="node7" class="node">
<title>system_cpu_icache_mem_side</title>
<path fill="#94918b" stroke="#000000" d="M616,-40.5C616,-40.5 672,-40.5 672,-40.5 678,-40.5 684,-46.5 684,-52.5 684,-52.5 684,-64.5 684,-64.5 684,-70.5 678,-76.5 672,-76.5 672,-76.5 616,-76.5 616,-76.5 610,-76.5 604,-70.5 604,-64.5 604,-64.5 604,-52.5 604,-52.5 604,-46.5 610,-40.5 616,-40.5"/>
<text text-anchor="middle" x="644" y="-54.8" font-family="Arial" font-size="14.00" fill="#000000">mem_side</text>
</g>
<!-- system_cpu_dcache_mem_side -->
<g id="node9" class="node">
<title>system_cpu_dcache_mem_side</title>
<path fill="#94918b" stroke="#000000" d="M422,-40.5C422,-40.5 478,-40.5 478,-40.5 484,-40.5 490,-46.5 490,-52.5 490,-52.5 490,-64.5 490,-64.5 490,-70.5 484,-76.5 478,-76.5 478,-76.5 422,-76.5 422,-76.5 416,-76.5 410,-70.5 410,-64.5 410,-64.5 410,-52.5 410,-52.5 410,-46.5 416,-40.5 422,-40.5"/>
<text text-anchor="middle" x="450" y="-54.8" font-family="Arial" font-size="14.00" fill="#000000">mem_side</text>
</g>
<!-- system_cpu_itb_walker_cache_mem_side -->
<g id="node11" class="node">
<title>system_cpu_itb_walker_cache_mem_side</title>
<path fill="#94918b" stroke="#000000" d="M814,-40.5C814,-40.5 870,-40.5 870,-40.5 876,-40.5 882,-46.5 882,-52.5 882,-52.5 882,-64.5 882,-64.5 882,-70.5 876,-76.5 870,-76.5 870,-76.5 814,-76.5 814,-76.5 808,-76.5 802,-70.5 802,-64.5 802,-64.5 802,-52.5 802,-52.5 802,-46.5 808,-40.5 814,-40.5"/>
<text text-anchor="middle" x="842" y="-54.8" font-family="Arial" font-size="14.00" fill="#000000">mem_side</text>
</g>
<!-- system_cpu_dtb_walker_cache_mem_side -->
<g id="node13" class="node">
<title>system_cpu_dtb_walker_cache_mem_side</title>
<path fill="#94918b" stroke="#000000" d="M1010,-40.5C1010,-40.5 1066,-40.5 1066,-40.5 1072,-40.5 1078,-46.5 1078,-52.5 1078,-52.5 1078,-64.5 1078,-64.5 1078,-70.5 1072,-76.5 1066,-76.5 1066,-76.5 1010,-76.5 1010,-76.5 1004,-76.5 998,-70.5 998,-64.5 998,-64.5 998,-52.5 998,-52.5 998,-46.5 1004,-40.5 1010,-40.5"/>
<text text-anchor="middle" x="1038" y="-54.8" font-family="Arial" font-size="14.00" fill="#000000">mem_side</text>
</g>
<!-- system_cpu_interrupts_int_requestor -->
<g id="node14" class="node">
<title>system_cpu_interrupts_int_requestor</title>
<path fill="#94918b" stroke="#000000" d="M628.5,-171.5C628.5,-171.5 699.5,-171.5 699.5,-171.5 705.5,-171.5 711.5,-177.5 711.5,-183.5 711.5,-183.5 711.5,-195.5 711.5,-195.5 711.5,-201.5 705.5,-207.5 699.5,-207.5 699.5,-207.5 628.5,-207.5 628.5,-207.5 622.5,-207.5 616.5,-201.5 616.5,-195.5 616.5,-195.5 616.5,-183.5 616.5,-183.5 616.5,-177.5 622.5,-171.5 628.5,-171.5"/>
<text text-anchor="middle" x="664" y="-185.8" font-family="Arial" font-size="14.00" fill="#000000">int_requestor</text>
</g>
<!-- system_cpu_interrupts_int_responder -->
<g id="node15" class="node">
<title>system_cpu_interrupts_int_responder</title>
<path fill="#94918b" stroke="#000000" d="M741.5,-171.5C741.5,-171.5 816.5,-171.5 816.5,-171.5 822.5,-171.5 828.5,-177.5 828.5,-183.5 828.5,-183.5 828.5,-195.5 828.5,-195.5 828.5,-201.5 822.5,-207.5 816.5,-207.5 816.5,-207.5 741.5,-207.5 741.5,-207.5 735.5,-207.5 729.5,-201.5 729.5,-195.5 729.5,-195.5 729.5,-183.5 729.5,-183.5 729.5,-177.5 735.5,-171.5 741.5,-171.5"/>
<text text-anchor="middle" x="779" y="-185.8" font-family="Arial" font-size="14.00" fill="#000000">int_responder</text>
</g>
<!-- system_cpu_interrupts_pio -->
<g id="node16" class="node">
<title>system_cpu_interrupts_pio</title>
<path fill="#94918b" stroke="#000000" d="M859,-171.5C859,-171.5 889,-171.5 889,-171.5 895,-171.5 901,-177.5 901,-183.5 901,-183.5 901,-195.5 901,-195.5 901,-201.5 895,-207.5 889,-207.5 889,-207.5 859,-207.5 859,-207.5 853,-207.5 847,-201.5 847,-195.5 847,-195.5 847,-183.5 847,-183.5 847,-177.5 853,-171.5 859,-171.5"/>
<text text-anchor="middle" x="874" y="-185.8" font-family="Arial" font-size="14.00" fill="#000000">pio</text>
</g>
<!-- system_membus_cpu_side_ports&#45;&gt;system_cpu_interrupts_int_requestor -->
<g id="edge7" class="edge">
<title>system_membus_cpu_side_ports&#45;&gt;system_cpu_interrupts_int_requestor</title>
<path fill="none" stroke="black" d="M650.29,-352.41C653.64,-312.92 659.75,-240.66 662.54,-207.7"/>
<polygon fill="black" stroke="black" points="646.8,-352.13 649.45,-362.39 653.78,-352.73 646.8,-352.13"/>
</g>
<!-- system_l2_mem_side -->
<g id="node20" class="node">
<title>system_l2_mem_side</title>
<path fill="#94918b" stroke="#000000" d="M57,-40.5C57,-40.5 113,-40.5 113,-40.5 119,-40.5 125,-46.5 125,-52.5 125,-52.5 125,-64.5 125,-64.5 125,-70.5 119,-76.5 113,-76.5 113,-76.5 57,-76.5 57,-76.5 51,-76.5 45,-70.5 45,-64.5 45,-64.5 45,-52.5 45,-52.5 45,-46.5 51,-40.5 57,-40.5"/>
<text text-anchor="middle" x="85" y="-54.8" font-family="Arial" font-size="14.00" fill="#000000">mem_side</text>
</g>
<!-- system_membus_cpu_side_ports&#45;&gt;system_l2_mem_side -->
<g id="edge6" class="edge">
<title>system_membus_cpu_side_ports&#45;&gt;system_l2_mem_side</title>
<path fill="none" stroke="black" d="M583.5,-378.36C428.95,-375.33 48.81,-365.86 30,-346 -42.97,-268.97 40.33,-126.14 72.99,-76.8"/>
<polygon fill="black" stroke="black" points="583.73,-381.87 593.79,-378.56 583.86,-374.87 583.73,-381.87"/>
</g>
<!-- system_membus_mem_side_ports -->
<g id="node18" class="node">
<title>system_membus_mem_side_ports</title>
<path fill="#586070" stroke="#000000" d="M732,-362.5C732,-362.5 826,-362.5 826,-362.5 832,-362.5 838,-368.5 838,-374.5 838,-374.5 838,-386.5 838,-386.5 838,-392.5 832,-398.5 826,-398.5 826,-398.5 732,-398.5 732,-398.5 726,-398.5 720,-392.5 720,-386.5 720,-386.5 720,-374.5 720,-374.5 720,-368.5 726,-362.5 732,-362.5"/>
<text text-anchor="middle" x="779" y="-376.8" font-family="Arial" font-size="14.00" fill="#000000">mem_side_ports</text>
</g>
<!-- system_membus_mem_side_ports&#45;&gt;system_cpu_interrupts_int_responder -->
<g id="edge9" class="edge">
<title>system_membus_mem_side_ports&#45;&gt;system_cpu_interrupts_int_responder</title>
<path fill="none" stroke="black" d="M779,-362.39C779,-329.52 779,-257.26 779,-217.7"/>
<polygon fill="black" stroke="black" points="782.5,-217.7 779,-207.7 775.5,-217.7 782.5,-217.7"/>
</g>
<!-- system_membus_mem_side_ports&#45;&gt;system_cpu_interrupts_pio -->
<g id="edge8" class="edge">
<title>system_membus_mem_side_ports&#45;&gt;system_cpu_interrupts_pio</title>
<path fill="none" stroke="black" d="M819.67,-362.42C826.61,-357.95 833.14,-352.51 838,-346 866.28,-308.09 872.86,-251.59 874.09,-218.16"/>
<polygon fill="black" stroke="black" points="877.6,-217.84 874.33,-207.76 870.6,-217.68 877.6,-217.84"/>
</g>
<!-- system_mem_ctrls_port -->
<g id="node23" class="node">
<title>system_mem_ctrls_port</title>
<path fill="#94918b" stroke="#000000" d="M68,-171.5C68,-171.5 98,-171.5 98,-171.5 104,-171.5 110,-177.5 110,-183.5 110,-183.5 110,-195.5 110,-195.5 110,-201.5 104,-207.5 98,-207.5 98,-207.5 68,-207.5 68,-207.5 62,-207.5 56,-201.5 56,-195.5 56,-195.5 56,-183.5 56,-183.5 56,-177.5 62,-171.5 68,-171.5"/>
<text text-anchor="middle" x="83" y="-185.8" font-family="Arial" font-size="14.00" fill="#000000">port</text>
</g>
<!-- system_membus_mem_side_ports&#45;&gt;system_mem_ctrls_port -->
<g id="edge10" class="edge">
<title>system_membus_mem_side_ports&#45;&gt;system_mem_ctrls_port</title>
<path fill="none" stroke="black" d="M740.47,-362.43C731.01,-358.98 720.79,-355.84 711,-354 694.92,-350.97 134.83,-356.15 122,-346 83.62,-315.64 79.56,-253.64 80.79,-217.78"/>
<polygon fill="black" stroke="black" points="84.29,-217.71 81.3,-207.55 77.3,-217.36 84.29,-217.71"/>
</g>
<!-- system_l2_cpu_side -->
<g id="node19" class="node">
<title>system_l2_cpu_side</title>
<path fill="#94918b" stroke="#000000" d="M155.5,-40.5C155.5,-40.5 202.5,-40.5 202.5,-40.5 208.5,-40.5 214.5,-46.5 214.5,-52.5 214.5,-52.5 214.5,-64.5 214.5,-64.5 214.5,-70.5 208.5,-76.5 202.5,-76.5 202.5,-76.5 155.5,-76.5 155.5,-76.5 149.5,-76.5 143.5,-70.5 143.5,-64.5 143.5,-64.5 143.5,-52.5 143.5,-52.5 143.5,-46.5 149.5,-40.5 155.5,-40.5"/>
<text text-anchor="middle" x="179" y="-54.8" font-family="Arial" font-size="14.00" fill="#000000">cpu_side</text>
</g>
<!-- system_tol2bus_cpu_side_ports -->
<g id="node21" class="node">
<title>system_tol2bus_cpu_side_ports</title>
<path fill="#586070" stroke="#000000" d="M282,-171.5C282,-171.5 366,-171.5 366,-171.5 372,-171.5 378,-177.5 378,-183.5 378,-183.5 378,-195.5 378,-195.5 378,-201.5 372,-207.5 366,-207.5 366,-207.5 282,-207.5 282,-207.5 276,-207.5 270,-201.5 270,-195.5 270,-195.5 270,-183.5 270,-183.5 270,-177.5 276,-171.5 282,-171.5"/>
<text text-anchor="middle" x="324" y="-185.8" font-family="Arial" font-size="14.00" fill="#000000">cpu_side_ports</text>
</g>
<!-- system_tol2bus_cpu_side_ports&#45;&gt;system_cpu_icache_mem_side -->
<g id="edge11" class="edge">
<title>system_tol2bus_cpu_side_ports&#45;&gt;system_cpu_icache_mem_side</title>
<path fill="none" stroke="black" d="M361.81,-166.78C370.82,-162.32 380.56,-158.06 390,-155 476.47,-126.98 513.16,-168.23 592,-123 611.03,-112.08 625.98,-91.32 634.88,-76.51"/>
<polygon fill="black" stroke="black" points="360.02,-163.76 352.73,-171.45 363.22,-169.99 360.02,-163.76"/>
</g>
<!-- system_tol2bus_cpu_side_ports&#45;&gt;system_cpu_dcache_mem_side -->
<g id="edge12" class="edge">
<title>system_tol2bus_cpu_side_ports&#45;&gt;system_cpu_dcache_mem_side</title>
<path fill="none" stroke="black" d="M348.01,-163.92C372.95,-138.39 411.32,-99.1 433.2,-76.7"/>
<polygon fill="black" stroke="black" points="345.22,-161.77 340.73,-171.37 350.22,-166.66 345.22,-161.77"/>
</g>
<!-- system_tol2bus_cpu_side_ports&#45;&gt;system_cpu_itb_walker_cache_mem_side -->
<g id="edge13" class="edge">
<title>system_tol2bus_cpu_side_ports&#45;&gt;system_cpu_itb_walker_cache_mem_side</title>
<path fill="none" stroke="black" d="M360.58,-166.77C369.89,-162.14 380.08,-157.8 390,-155 474.97,-131.01 707.06,-162.54 786,-123 806.37,-112.8 822.6,-91.67 832.24,-76.59"/>
<polygon fill="black" stroke="black" points="358.84,-163.73 351.6,-171.46 362.08,-169.93 358.84,-163.73"/>
</g>
<!-- system_tol2bus_cpu_side_ports&#45;&gt;system_cpu_dtb_walker_cache_mem_side -->
<g id="edge14" class="edge">
<title>system_tol2bus_cpu_side_ports&#45;&gt;system_cpu_dtb_walker_cache_mem_side</title>
<path fill="none" stroke="black" d="M360.26,-166.71C369.65,-162.04 379.95,-157.69 390,-155 517.69,-120.79 865.55,-181.68 984,-123 1004.1,-113.04 1019.66,-91.86 1028.8,-76.7"/>
<polygon fill="black" stroke="black" points="358.46,-163.71 351.23,-171.46 361.71,-169.91 358.46,-163.71"/>
</g>
<!-- system_tol2bus_mem_side_ports -->
<g id="node22" class="node">
<title>system_tol2bus_mem_side_ports</title>
<path fill="#586070" stroke="#000000" d="M146,-171.5C146,-171.5 240,-171.5 240,-171.5 246,-171.5 252,-177.5 252,-183.5 252,-183.5 252,-195.5 252,-195.5 252,-201.5 246,-207.5 240,-207.5 240,-207.5 146,-207.5 146,-207.5 140,-207.5 134,-201.5 134,-195.5 134,-195.5 134,-183.5 134,-183.5 134,-177.5 140,-171.5 146,-171.5"/>
<text text-anchor="middle" x="193" y="-185.8" font-family="Arial" font-size="14.00" fill="#000000">mem_side_ports</text>
</g>
<!-- system_tol2bus_mem_side_ports&#45;&gt;system_l2_cpu_side -->
<g id="edge15" class="edge">
<title>system_tol2bus_mem_side_ports&#45;&gt;system_l2_cpu_side</title>
<path fill="none" stroke="black" d="M191.14,-171.37C188.8,-149.78 184.74,-112.41 181.97,-86.85"/>
<polygon fill="black" stroke="black" points="185.43,-86.27 180.87,-76.7 178.47,-87.02 185.43,-86.27"/>
</g>
</g>
</svg>
